REM DIRINDEX 1\2\6,1\2\7,1\2\8,1\2\9,1\3\10,1\3\11,1\4\12,1\4\13,1\4\14,1\5\15,1\5\16,1\5\17
REM DIRNAME cjc020,folder01,folder02,folder03,folder04,folder05,folder06,folder07,folder08,folder09,folder10,folder11,folder12,folder13,folder14,folder15,folder16
TITLE ""
FILE "1900_2_sec08_0701_0715.mp3" MP3
  TRACK 01 AUDIO
    TITLE "0:"
    INDEX 01 00:00:00
  TRACK 02 AUDIO
    TITLE "12:cjc020_3515"
    INDEX 01 00:03:21
  TRACK 03 AUDIO
    TITLE "0:"
    INDEX 01 00:04:70
  TRACK 04 AUDIO
    TITLE "12:cjc020_3516"
    INDEX 01 00:05:40
  TRACK 05 AUDIO
    TITLE "0:"
    INDEX 01 00:06:61
  TRACK 06 AUDIO
    TITLE "13:cjc020_3517"
    INDEX 01 00:07:64
  TRACK 07 AUDIO
    TITLE "0:"
    INDEX 01 00:09:16
  TRACK 08 AUDIO
    TITLE "14:cjc020_3518"
    INDEX 01 00:09:20
  TRACK 09 AUDIO
    TITLE "0:"
    INDEX 01 00:11:58
  TRACK 10 AUDIO
    TITLE "13:cjc020_3519"
    INDEX 01 00:12:38
  TRACK 11 AUDIO
    TITLE "0:"
    INDEX 01 00:13:49
  TRACK 12 AUDIO
    TITLE "14:cjc020_3520"
    INDEX 01 00:13:55
  TRACK 13 AUDIO
    TITLE "0:"
    INDEX 01 00:16:12
  TRACK 14 AUDIO
    TITLE "13:cjc020_3521"
    INDEX 01 00:16:71
  TRACK 15 AUDIO
    TITLE "0:"
    INDEX 01 00:18:07
  TRACK 16 AUDIO
    TITLE "14:cjc020_3522"
    INDEX 01 00:18:09
  TRACK 17 AUDIO
    TITLE "0:"
    INDEX 01 00:22:27
  TRACK 18 AUDIO
    TITLE "13:cjc020_3523"
    INDEX 01 00:23:08
  TRACK 19 AUDIO
    TITLE "0:"
    INDEX 01 00:24:10
  TRACK 20 AUDIO
    TITLE "14:cjc020_3524"
    INDEX 01 00:24:12
  TRACK 21 AUDIO
    TITLE "0:"
    INDEX 01 00:26:69
  TRACK 22 AUDIO
    TITLE "13:cjc020_3525"
    INDEX 01 00:27:49
  TRACK 23 AUDIO
    TITLE "0:"
    INDEX 01 00:28:60
  TRACK 24 AUDIO
    TITLE "14:cjc020_3526"
    INDEX 01 00:28:62
  TRACK 25 AUDIO
    TITLE "0:"
    INDEX 01 00:30:67
  TRACK 26 AUDIO
    TITLE "13:cjc020_3527"
    INDEX 01 00:31:49
  TRACK 27 AUDIO
    TITLE "0:"
    INDEX 01 00:32:43
  TRACK 28 AUDIO
    TITLE "14:cjc020_3528"
    INDEX 01 00:32:47
  TRACK 29 AUDIO
    TITLE "0:"
    INDEX 01 00:37:46
  TRACK 30 AUDIO
    TITLE "13:cjc020_3529"
    INDEX 01 00:38:26
  TRACK 31 AUDIO
    TITLE "0:"
    INDEX 01 00:39:25
  TRACK 32 AUDIO
    TITLE "14:cjc020_3530"
    INDEX 01 00:39:29
  TRACK 33 AUDIO
    TITLE "0:"
    INDEX 01 00:41:22
  TRACK 34 AUDIO
    TITLE "13:cjc020_3531"
    INDEX 01 00:42:04
  TRACK 35 AUDIO
    TITLE "0:"
    INDEX 01 00:43:21
  TRACK 36 AUDIO
    TITLE "14:cjc020_3532"
    INDEX 01 00:43:27
  TRACK 37 AUDIO
    TITLE "0:"
    INDEX 01 00:47:34
  TRACK 38 AUDIO
    TITLE "13:cjc020_3533"
    INDEX 01 00:48:12
  TRACK 39 AUDIO
    TITLE "0:"
    INDEX 01 00:49:27
  TRACK 40 AUDIO
    TITLE "14:cjc020_3534"
    INDEX 01 00:49:31
  TRACK 41 AUDIO
    TITLE "0:"
    INDEX 01 00:51:40
  TRACK 42 AUDIO
    TITLE "13:cjc020_3535"
    INDEX 01 00:52:20
  TRACK 43 AUDIO
    TITLE "0:"
    INDEX 01 00:53:25
  TRACK 44 AUDIO
    TITLE "14:cjc020_3536"
    INDEX 01 00:53:33
  TRACK 45 AUDIO
    TITLE "0:"
    INDEX 01 00:57:07
  TRACK 46 AUDIO
    TITLE "13:cjc020_3537"
    INDEX 01 00:57:60
  TRACK 47 AUDIO
    TITLE "0:"
    INDEX 01 00:58:48
  TRACK 48 AUDIO
    TITLE "14:cjc020_3538"
    INDEX 01 00:58:64
  TRACK 49 AUDIO
    TITLE "0:"
    INDEX 01 01:03:00
  TRACK 50 AUDIO
    TITLE "13:cjc020_3539"
    INDEX 01 01:03:57
  TRACK 51 AUDIO
    TITLE "0:"
    INDEX 01 01:05:07
  TRACK 52 AUDIO
    TITLE "14:cjc020_3540"
    INDEX 01 01:05:13
  TRACK 53 AUDIO
    TITLE "0:"
    INDEX 01 01:07:55
  TRACK 54 AUDIO
    TITLE "13:cjc020_3541"
    INDEX 01 01:08:38
  TRACK 55 AUDIO
    TITLE "0:"
    INDEX 01 01:09:59
  TRACK 56 AUDIO
    TITLE "14:cjc020_3542"
    INDEX 01 01:09:63
  TRACK 57 AUDIO
    TITLE "0:"
    INDEX 01 01:13:12
  TRACK 58 AUDIO
    TITLE "13:cjc020_3543"
    INDEX 01 01:13:69
  TRACK 59 AUDIO
    TITLE "0:"
    INDEX 01 01:15:01
  TRACK 60 AUDIO
    TITLE "14:cjc020_3544"
    INDEX 01 01:15:05
  TRACK 61 AUDIO
    TITLE "0:"
    INDEX 01 01:17:39
  TRACK 62 AUDIO
    TITLE "13:cjc020_3545"
    INDEX 01 01:18:19
  TRACK 63 AUDIO
    TITLE "0:"
    INDEX 01 01:19:34
  TRACK 64 AUDIO
    TITLE "14:cjc020_3546"
    INDEX 01 01:19:36
  TRACK 65 AUDIO
    TITLE "0:"
    INDEX 01 01:21:37
